<?xml version="1.0" encoding="utf-8"?>
<!-- Generator: Adobe Illustrator 21.1.0, SVG Export Plug-In . SVG Version: 6.00 Build 0)  -->
<svg version="1.1" id="Layer_1" xmlns:sketch="http://www.bohemiancoding.com/sketch/ns"
	 xmlns="http://www.w3.org/2000/svg" xmlns:xlink="http://www.w3.org/1999/xlink" x="0px" y="0px" viewBox="0 0 386 386"
	 enable-background="new 0 0 386 386" xml:space="preserve">
<title>Rectangle 1</title>
<desc>Created with Sketch.</desc>
<g id="Page-1" sketch:type="MSPage">
	<path id="Rectangle-1" sketch:type="MSShapeGroup" d="M79.3,160.9H45V326c0,7.7,6.3,14,14,14h268c7.7,0,14-6.3,14-14V160.9h-30.3
		c2.8,10.2,4.3,21,4.3,32.1c0,66.3-53.7,120-120,120S75,259.3,75,193C75,181.9,76.5,171.1,79.3,160.9z M0,40C0,17.9,17.9,0,40,0h306
		c22.1,0,40,17.9,40,40v306c0,22.1-17.9,40-40,40H40c-22.1,0-40-17.9-40-40V40z M193,266c40.9,0,74-33.1,74-74s-33.1-74-74-74
		s-74,33.1-74,74S152.1,266,193,266z"/>
</g>
<path fill="#FFFFFF" d="M268,57c0-7.2,5.8-13,13-13h48c7.2,0,13,5.8,13,13v48c0,7.2-5.8,13-13,13h-48c-7.2,0-13-5.8-13-13V57z"/>
</svg>
